<svg version="1.1" xmlns="http://www.w3.org/2000/svg" xmlns:xlink="http://www.w3.org/1999/xlink" width="42.03003" height="42.03003" viewBox="0,0,42.03003,42.03003"><g transform="translate(-618.98498,-338.98498)"><g data-paper-data="{&quot;isPaintingLayer&quot;:true}" fill="#ffffff" fill-rule="nonzero" stroke="none" stroke-width="1" stroke-linecap="butt" stroke-linejoin="miter" stroke-miterlimit="10" stroke-dasharray="" stroke-dashoffset="0" style="mix-blend-mode: normal"><path d="M628.61684,358.24878c-5.31951,0 -9.63185,-4.31235 -9.63185,-9.63194c0,-5.31959 4.31235,-9.63185 9.63185,-9.63185c5.31951,0 9.63185,4.31235 9.63185,9.63185c-0.00575,5.31721 -4.31465,9.62611 -9.63185,9.63194zM628.61684,344.23874c-2.41796,0 -4.3781,1.96014 -4.3781,4.3781c0,2.41796 1.96014,4.3781 4.3781,4.3781c2.41796,0 4.3781,-1.96014 4.3781,-4.3781c0,-2.41796 -1.96006,-4.3781 -4.3781,-4.3781z"/><path d="M651.38316,358.24878c-5.31951,0 -9.63185,-4.31235 -9.63185,-9.63185c0,-5.31951 4.31226,-9.63194 9.63185,-9.63194c5.31959,0 9.63185,4.31235 9.63185,9.63185c-0.00583,5.31721 -4.31473,9.62611 -9.63185,9.63194zM651.38316,344.23874c-2.41796,0 -4.3781,1.96014 -4.3781,4.3781c0,2.41796 1.96014,4.3781 4.3781,4.3781c2.41796,0 4.3781,-1.96006 4.3781,-4.3781c0,-2.41804 -1.96014,-4.3781 -4.3781,-4.3781z"/><path d="M628.61684,381.01502c-5.31951,0 -9.63185,-4.31235 -9.63185,-9.63185c0,-5.31951 4.31235,-9.63185 9.63185,-9.63185c5.31951,0 9.63185,4.31235 9.63185,9.63185c-0.00575,5.31713 -4.31465,9.62603 -9.63185,9.63185zM628.61684,367.00498c-2.41796,0 -4.3781,1.96014 -4.3781,4.37818c0,2.41804 1.96014,4.3781 4.3781,4.3781c2.41796,0 4.3781,-1.96014 4.3781,-4.3781c0,-2.41796 -1.96006,-4.37818 -4.3781,-4.37818z"/><path d="M651.38316,381.01502c-5.31951,0 -9.63185,-4.31235 -9.63185,-9.63185c0,-5.31951 4.31235,-9.63185 9.63185,-9.63185c5.31951,0 9.63185,4.31226 9.63185,9.63185c-0.00583,5.31713 -4.31473,9.62603 -9.63185,9.63185zM651.38316,367.00498c-2.41796,0 -4.3781,1.96014 -4.3781,4.3781c0,2.41796 1.96006,4.37818 4.3781,4.37818c2.41804,0 4.3781,-1.96014 4.3781,-4.3781c0,-2.41796 -1.96014,-4.37818 -4.3781,-4.37818z"/></g></g></svg>